<svg xmlns="http://www.w3.org/2000/svg" viewBox="-28 -28 376.0 376.0" fill="none" stroke-linecap="square"><g stroke="#1A1330" stroke-opacity="1" stroke-width="1.25"><rect x="0" y="0" width="320.0" height="320.0"/><line x1="100.0" y1="0" x2="100.0" y2="320.0"/><line x1="0" y1="100.0" x2="320.0" y2="100.0"/><line x1="220.0" y1="0" x2="220.0" y2="320.0"/><line x1="0" y1="220.0" x2="320.0" y2="220.0"/><rect x="100.0" y="100.0" width="120" height="120" stroke-width="2.25"/><line x1="0" y1="0" x2="320.0" y2="320.0" stroke-opacity="0.35" stroke-dasharray="2 6"/></g><g stroke="#B4532A" stroke-opacity="1" stroke-width="1.25"><line x1="0" y1="33.333333333333336" x2="33.333333333333336" y2="0"/><line x1="0" y1="66.66666666666667" x2="66.66666666666667" y2="0"/><line x1="0" y1="100.0" x2="100.0" y2="0"/><line x1="33.33333333333334" y1="100.0" x2="100.0" y2="33.33333333333334"/><line x1="66.66666666666666" y1="100.0" x2="100.0" y2="66.66666666666666"/><line x1="220.0" y1="33.333333333333336" x2="253.33333333333334" y2="0"/><line x1="220.0" y1="66.66666666666667" x2="286.6666666666667" y2="0"/><line x1="220.0" y1="100.0" x2="320.0" y2="0"/><line x1="253.33333333333334" y1="100.0" x2="320.0" y2="33.33333333333334"/><line x1="286.66666666666663" y1="100.0" x2="320.0" y2="66.66666666666666"/><line x1="0" y1="253.33333333333334" x2="33.333333333333336" y2="220.0"/><line x1="0" y1="286.6666666666667" x2="66.66666666666667" y2="220.0"/><line x1="0" y1="320.0" x2="100.0" y2="220.0"/><line x1="33.33333333333334" y1="320.0" x2="100.0" y2="253.33333333333334"/><line x1="66.66666666666666" y1="320.0" x2="100.0" y2="286.66666666666663"/><line x1="220.0" y1="253.33333333333334" x2="253.33333333333334" y2="220.0"/><line x1="220.0" y1="286.6666666666667" x2="286.6666666666667" y2="220.0"/><line x1="220.0" y1="320.0" x2="320.0" y2="220.0"/><line x1="253.33333333333334" y1="320.0" x2="320.0" y2="253.33333333333334"/><line x1="286.66666666666663" y1="320.0" x2="320.0" y2="286.66666666666663"/></g><text x="-14" y="-8" font-family="Noto Naskh Arabic, serif" font-size="15" fill="#1A1330" stroke="none">أ</text><text x="326.0" y="-8" font-family="Noto Naskh Arabic, serif" font-size="15" fill="#1A1330" stroke="none">ب</text><text x="326.0" y="338.0" font-family="Noto Naskh Arabic, serif" font-size="15" fill="#1A1330" stroke="none">ج</text><text x="-14" y="338.0" font-family="Noto Naskh Arabic, serif" font-size="15" fill="#1A1330" stroke="none">د</text><text x="160.0" y="164.0" text-anchor="middle" font-family="IBM Plex Mono, monospace" stroke="none" font-size="13" fill="#1A1330">x²</text><text x="160.0" y="54.0" text-anchor="middle" font-family="IBM Plex Mono, monospace" font-size="11" stroke="none" fill="#1A1330">2½x</text><text x="50.0" y="54.0" text-anchor="middle" font-family="IBM Plex Mono, monospace" font-size="11" stroke="none" fill="#B4532A">6¼</text></svg>